{
  "accessors": [
    {
      "bufferView": 2,
      "componentType": 5126,
      "count": 7098,
      "max": [
        0.28812476992607117,
        0.30548369884490967,
        1.4296060800552368
      ],
      "min": [
        -0.28890135884284973,
        -0.11235299706459045,
        0.6801586151123047
      ],
      "type": "VEC3"
    },
    {
      "bufferView": 2,
      "byteOffset": 85176,
      "componentType": 5126,
      "count": 7098,
      "type": "VEC3"
    },
    {
      "bufferView": 1,
      "componentType": 5126,
      "count": 7098,
      "type": "VEC2"
    },
    {
      "bufferView": 4,
      "componentType": 5123,
      "count": 7098,
      "type": "VEC4"
    },
    {
      "bufferView": 3,
      "componentType": 5126,
      "count": 7098,
      "type": "VEC4"
    },
    {
      "bufferView": 0,
      "componentType": 5125,
      "count": 26916,
      "type": "SCALAR"
    },
    {
      "bufferView": 2,
      "byteOffset": 170352,
      "componentType": 5126,
      "count": 228,
      "max": [
        0.0851556584239006,
        0.08256535232067108,
        1.447270393371582
      ],
      "min": [
        -0.14991359412670135,
        -0.11738143861293793,
        1.2247015237808228
      ],
      "type": "VEC3"
    },
    {
      "bufferView": 2,
      "byteOffset": 173088,
      "componentType": 5126,
      "count": 228,
      "type": "VEC3"
    },
    {
      "bufferView": 1,
      "byteOffset": 56784,
      "componentType": 5126,
      "count": 228,
      "type": "VEC2"
    },
    {
      "bufferView": 4,
      "byteOffset": 56784,
      "componentType": 5123,
      "count": 228,
      "type": "VEC4"
    },
    {
      "bufferView": 3,
      "byteOffset": 113568,
      "componentType": 5126,
      "count": 228,
      "type": "VEC4"
    },
    {
      "bufferView": 0,
      "byteOffset": 107664,
      "componentType": 5125,
      "count": 618,
      "type": "SCALAR"
    },
    {
      "bufferView": 2,
      "byteOffset": 175824,
      "componentType": 5126,
      "count": 80,
      "max": [
        0.08853334933519363,
        0.031570617109537125,
        1.327573299407959
      ],
      "min": [
        -0.08677931874990463,
        -0.00362347811460495,
        1.2190443277359009
      ],
      "type": "VEC3"
    },
    {
      "bufferView": 2,
      "byteOffset": 176784,
      "componentType": 5126,
      "count": 80,
      "type": "VEC3"
    },
    {
      "bufferView": 1,
      "byteOffset": 58608,
      "componentType": 5126,
      "count": 80,
      "type": "VEC2"
    },
    {
      "bufferView": 4,
      "byteOffset": 58608,
      "componentType": 5123,
      "count": 80,
      "type": "VEC4"
    },
    {
      "bufferView": 3,
      "byteOffset": 117216,
      "componentType": 5126,
      "count": 80,
      "type": "VEC4"
    },
    {
      "bufferView": 0,
      "byteOffset": 110136,
      "componentType": 5125,
      "count": 192,
      "type": "SCALAR"
    },
    {
      "bufferView": 2,
      "byteOffset": 177744,
      "componentType": 5126,
      "count": 203,
      "max": [
        0.08267522603273392,
        0.04803353548049927,
        1.4233514070510864
      ],
      "min": [
        -0.07601696997880936,
        -0.09183145314455032,
        1.187914490699768
      ],
      "type": "VEC3"
    },
    {
      "bufferView": 2,
      "byteOffset": 180180,
      "componentType": 5126,
      "count": 203,
      "type": "VEC3"
    },
    {
      "bufferView": 1,
      "byteOffset": 59248,
      "componentType": 5126,
      "count": 203,
      "type": "VEC2"
    },
    {
      "bufferView": 4,
      "byteOffset": 59248,
      "componentType": 5123,
      "count": 203,
      "type": "VEC4"
    },
    {
      "bufferView": 3,
      "byteOffset": 118496,
      "componentType": 5126,
      "count": 203,
      "type": "VEC4"
    },
    {
      "bufferView": 0,
      "byteOffset": 110904,
      "componentType": 5125,
      "count": 726,
      "type": "SCALAR"
    },
    {
      "bufferView": 2,
      "byteOffset": 182616,
      "componentType": 5126,
      "count": 1645,
      "max": [
        0.20651240646839142,
        0.2822452783584595,
        1.3855012655258179
      ],
      "min": [
        -0.20278365910053253,
        0.055601488798856735,
        0.7140074372291565
      ],
      "type": "VEC3"
    },
    {
      "bufferView": 2,
      "byteOffset": 202356,
      "componentType": 5126,
      "count": 1645,
      "type": "VEC3"
    },
    {
      "bufferView": 1,
      "byteOffset": 60872,
      "componentType": 5126,
      "count": 1645,
      "type": "VEC2"
    },
    {
      "bufferView": 4,
      "byteOffset": 60872,
      "componentType": 5123,
      "count": 1645,
      "type": "VEC4"
    },
    {
      "bufferView": 3,
      "byteOffset": 121744,
      "componentType": 5126,
      "count": 1645,
      "type": "VEC4"
    },
    {
      "bufferView": 0,
      "byteOffset": 113808,
      "componentType": 5125,
      "count": 6396,
      "type": "SCALAR"
    },
    {
      "bufferView": 2,
      "byteOffset": 222096,
      "componentType": 5126,
      "count": 198,
      "max": [
        0.178361177444458,
        0.19418860971927643,
        1.4857916831970215
      ],
      "min": [
        -0.17778344452381134,
        0.04331223666667938,
        1.3626880645751953
      ],
      "type": "VEC3"
    },
    {
      "bufferView": 2,
      "byteOffset": 224472,
      "componentType": 5126,
      "count": 198,
      "type": "VEC3"
    },
    {
      "bufferView": 1,
      "byteOffset": 74032,
      "componentType": 5126,
      "count": 198,
      "type": "VEC2"
    },
    {
      "bufferView": 4,
      "byteOffset": 74032,
      "componentType": 5123,
      "count": 198,
      "type": "VEC4"
    },
    {
      "bufferView": 3,
      "byteOffset": 148064,
      "componentType": 5126,
      "count": 198,
      "type": "VEC4"
    },
    {
      "bufferView": 0,
      "byteOffset": 139392,
      "componentType": 5125,
      "count": 744,
      "type": "SCALAR"
    },
    {
      "bufferView": 2,
      "byteOffset": 226848,
      "componentType": 5126,
      "count": 387,
      "max": [
        0.021772975102066994,
        -0.055124975740909576,
        1.2503262758255005
      ],
      "min": [
        -0.021987373009324074,
        -0.0952911525964737,
        1.2234245538711548
      ],
      "type": "VEC3"
    },
    {
      "bufferView": 2,
      "byteOffset": 231492,
      "componentType": 5126,
      "count": 387,
      "type": "VEC3"
    },
    {
      "bufferView": 1,
      "byteOffset": 75616,
      "componentType": 5126,
      "count": 387,
      "type": "VEC2"
    },
    {
      "bufferView": 4,
      "byteOffset": 75616,
      "componentType": 5123,
      "count": 387,
      "type": "VEC4"
    },
    {
      "bufferView": 3,
      "byteOffset": 151232,
      "componentType": 5126,
      "count": 387,
      "type": "VEC4"
    },
    {
      "bufferView": 0,
      "byteOffset": 142368,
      "componentType": 5125,
      "count": 1488,
      "type": "SCALAR"
    },
    {
      "bufferView": 2,
      "byteOffset": 236136,
      "componentType": 5126,
      "count": 74,
      "max": [
        0.05449464172124863,
        -0.058000598102808,
        1.2927991151809692
      ],
      "min": [
        -0.0547097884118557,
        -0.08360300958156586,
        1.2644875049591064
      ],
      "type": "VEC3"
    },
    {
      "bufferView": 2,
      "byteOffset": 237024,
      "componentType": 5126,
      "count": 74,
      "type": "VEC3"
    },
    {
      "bufferView": 1,
      "byteOffset": 78712,
      "componentType": 5126,
      "count": 74,
      "type": "VEC2"
    },
    {
      "bufferView": 4,
      "byteOffset": 78712,
      "componentType": 5123,
      "count": 74,
      "type": "VEC4"
    },
    {
      "bufferView": 3,
      "byteOffset": 157424,
      "componentType": 5126,
      "count": 74,
      "type": "VEC4"
    },
    {
      "bufferView": 0,
      "byteOffset": 148320,
      "componentType": 5125,
      "count": 288,
      "type": "SCALAR"
    },
    {
      "bufferView": 2,
      "byteOffset": 237912,
      "componentType": 5126,
      "count": 260,
      "max": [
        0.08025074750185013,
        -0.05482851341366768,
        1.3064254522323608
      ],
      "min": [
        -0.08046586066484451,
        -0.09641967713832855,
        1.2601388692855835
      ],
      "type": "VEC3"
    },
    {
      "bufferView": 2,
      "byteOffset": 241032,
      "componentType": 5126,
      "count": 260,
      "type": "VEC3"
    },
    {
      "bufferView": 1,
      "byteOffset": 79304,
      "componentType": 5126,
      "count": 260,
      "type": "VEC2"
    },
    {
      "bufferView": 4,
      "byteOffset": 79304,
      "componentType": 5123,
      "count": 260,
      "type": "VEC4"
    },
    {
      "bufferView": 3,
      "byteOffset": 158608,
      "componentType": 5126,
      "count": 260,
      "type": "VEC4"
    },
    {
      "bufferView": 0,
      "byteOffset": 149472,
      "componentType": 5125,
      "count": 1152,
      "type": "SCALAR"
    },
    {
      "bufferView": 2,
      "byteOffset": 244152,
      "componentType": 5126,
      "count": 150,
      "max": [
        0.07315727323293686,
        -0.06760943681001663,
        1.3000564575195313
      ],
      "min": [
        -0.07337241619825363,
        -0.10080103576183319,
        1.2647836208343506
      ],
      "type": "VEC3"
    },
    {
      "bufferView": 2,
      "byteOffset": 245952,
      "componentType": 5126,
      "count": 150,
      "type": "VEC3"
    },
    {
      "bufferView": 1,
      "byteOffset": 81384,
      "componentType": 5126,
      "count": 150,
      "type": "VEC2"
    },
    {
      "bufferView": 4,
      "byteOffset": 81384,
      "componentType": 5123,
      "count": 150,
      "type": "VEC4"
    },
    {
      "bufferView": 3,
      "byteOffset": 162768,
      "componentType": 5126,
      "count": 150,
      "type": "VEC4"
    },
    {
      "bufferView": 0,
      "byteOffset": 154080,
      "componentType": 5125,
      "count": 672,
      "type": "SCALAR"
    },
    {
      "bufferView": 2,
      "byteOffset": 247752,
      "componentType": 5126,
      "count": 110,
      "max": [
        0.06969726085662842,
        -0.06544237583875656,
        1.3376266956329346
      ],
      "min": [
        -0.06991242617368698,
        -0.09670813381671906,
        1.290879726409912
      ],
      "type": "VEC3"
    },
    {
      "bufferView": 2,
      "byteOffset": 249072,
      "componentType": 5126,
      "count": 110,
      "type": "VEC3"
    },
    {
      "bufferView": 1,
      "byteOffset": 82584,
      "componentType": 5126,
      "count": 110,
      "type": "VEC2"
    },
    {
      "bufferView": 4,
      "byteOffset": 82584,
      "componentType": 5123,
      "count": 110,
      "type": "VEC4"
    },
    {
      "bufferView": 3,
      "byteOffset": 165168,
      "componentType": 5126,
      "count": 110,
      "type": "VEC4"
    },
    {
      "bufferView": 0,
      "byteOffset": 156768,
      "componentType": 5125,
      "count": 480,
      "type": "SCALAR"
    },
    {
      "bufferView": 2,
      "byteOffset": 250392,
      "componentType": 5126,
      "count": 122,
      "max": [
        0.048914335668087006,
        -0.06890903413295746,
        1.2975834608078003
      ],
      "min": [
        -0.04912953078746796,
        -0.08529141545295715,
        1.2638050317764282
      ],
      "type": "VEC3"
    },
    {
      "bufferView": 2,
      "byteOffset": 251856,
      "componentType": 5126,
      "count": 122,
      "type": "VEC3"
    },
    {
      "bufferView": 1,
      "byteOffset": 83464,
      "componentType": 5126,
      "count": 122,
      "type": "VEC2"
    },
    {
      "bufferView": 4,
      "byteOffset": 83464,
      "componentType": 5123,
      "count": 122,
      "type": "VEC4"
    },
    {
      "bufferView": 3,
      "byteOffset": 166928,
      "componentType": 5126,
      "count": 122,
      "type": "VEC4"
    },
    {
      "bufferView": 0,
      "byteOffset": 158688,
      "componentType": 5125,
      "count": 576,
      "type": "SCALAR"
    },
    {
      "bufferView": 2,
      "byteOffset": 253320,
      "componentType": 5126,
      "count": 122,
      "max": [
        0.04900728166103363,
        -0.06903181225061417,
        1.2975164651870728
      ],
      "min": [
        -0.049222469329833984,
        -0.08610519766807556,
        1.2637834548950195
      ],
      "type": "VEC3"
    },
    {
      "bufferView": 2,
      "byteOffset": 254784,
      "componentType": 5126,
      "count": 122,
      "type": "VEC3"
    },
    {
      "bufferView": 1,
      "byteOffset": 84440,
      "componentType": 5126,
      "count": 122,
      "type": "VEC2"
    },
    {
      "bufferView": 4,
      "byteOffset": 84440,
      "componentType": 5123,
      "count": 122,
      "type": "VEC4"
    },
    {
      "bufferView": 3,
      "byteOffset": 168880,
      "componentType": 5126,
      "count": 122,
      "type": "VEC4"
    },
    {
      "bufferView": 0,
      "byteOffset": 160992,
      "componentType": 5125,
      "count": 576,
      "type": "SCALAR"
    },
    {
      "bufferView": 2,
      "byteOffset": 256248,
      "componentType": 5126,
      "count": 780,
      "max": [
        0.09164763987064362,
        0.03377431631088257,
        1.4098354578018188
      ],
      "min": [
        -0.0918627679347992,
        -0.10908644646406174,
        1.2011924982070923
      ],
      "type": "VEC3"
    },
    {
      "bufferView": 2,
      "byteOffset": 265608,
      "componentType": 5126,
      "count": 780,
      "type": "VEC3"
    },
    {
      "bufferView": 1,
      "byteOffset": 85416,
      "componentType": 5126,
      "count": 780,
      "type": "VEC2"
    },
    {
      "bufferView": 4,
      "byteOffset": 85416,
      "componentType": 5123,
      "count": 780,
      "type": "VEC4"
    },
    {
      "bufferView": 3,
      "byteOffset": 170832,
      "componentType": 5126,
      "count": 780,
      "type": "VEC4"
    },
    {
      "bufferView": 0,
      "byteOffset": 163296,
      "componentType": 5125,
      "count": 4050,
      "type": "SCALAR"
    },
    {
      "bufferView": 2,
      "byteOffset": 274968,
      "componentType": 5126,
      "count": 50,
      "max": [
        0.03996364772319794,
        -0.04865068942308426,
        1.2972179651260376
      ],
      "min": [
        -0.040178775787353516,
        -0.06201827898621559,
        1.2694132328033447
      ],
      "type": "VEC3"
    },
    {
      "bufferView": 2,
      "byteOffset": 275568,
      "componentType": 5126,
      "count": 50,
      "type": "VEC3"
    },
    {
      "bufferView": 1,
      "byteOffset": 91656,
      "componentType": 5126,
      "count": 50,
      "type": "VEC2"
    },
    {
      "bufferView": 4,
      "byteOffset": 91656,
      "componentType": 5123,
      "count": 50,
      "type": "VEC4"
    },
    {
      "bufferView": 3,
      "byteOffset": 183312,
      "componentType": 5126,
      "count": 50,
      "type": "VEC4"
    },
    {
      "bufferView": 0,
      "byteOffset": 179496,
      "componentType": 5125,
      "count": 192,
      "type": "SCALAR"
    },
    {
      "bufferView": 2,
      "byteOffset": 276168,
      "componentType": 5126,
      "count": 5356,
      "max": [
        0.6046940684318542,
        0.11299020051956177,
        1.4172673225402832
      ],
      "min": [
        -0.6049013733863831,
        -0.10863915085792542,
        0.006425121799111366
      ],
      "type": "VEC3"
    },
    {
      "bufferView": 2,
      "byteOffset": 340440,
      "componentType": 5126,
      "count": 5356,
      "type": "VEC3"
    },
    {
      "bufferView": 1,
      "byteOffset": 92056,
      "componentType": 5126,
      "count": 5356,
      "type": "VEC2"
    },
    {
      "bufferView": 4,
      "byteOffset": 92056,
      "componentType": 5123,
      "count": 5356,
      "type": "VEC4"
    },
    {
      "bufferView": 3,
      "byteOffset": 184112,
      "componentType": 5126,
      "count": 5356,
      "type": "VEC4"
    },
    {
      "bufferView": 0,
      "byteOffset": 180264,
      "componentType": 5125,
      "count": 25932,
      "type": "SCALAR"
    },
    {
      "bufferView": 2,
      "byteOffset": 404712,
      "componentType": 5126,
      "count": 1252,
      "max": [
        0.5301520824432373,
        0.20680803060531616,
        1.1972066164016724
      ],
      "min": [
        -0.5303832292556763,
        -0.16928121447563171,
        0.5307588577270508
      ],
      "type": "VEC3"
    },
    {
      "bufferView": 2,
      "byteOffset": 419736,
      "componentType": 5126,
      "count": 1252,
      "type": "VEC3"
    },
    {
      "bufferView": 1,
      "byteOffset": 134904,
      "componentType": 5126,
      "count": 1252,
      "type": "VEC2"
    },
    {
      "bufferView": 4,
      "byteOffset": 134904,
      "componentType": 5123,
      "count": 1252,
      "type": "VEC4"
    },
    {
      "bufferView": 3,
      "byteOffset": 269808,
      "componentType": 5126,
      "count": 1252,
      "type": "VEC4"
    },
    {
      "bufferView": 0,
      "byteOffset": 283992,
      "componentType": 5125,
      "count": 6366,
      "type": "SCALAR"
    },
    {
      "bufferView": 2,
      "byteOffset": 434760,
      "componentType": 5126,
      "count": 502,
      "max": [
        0.07709261029958725,
        0.07385775446891785,
        0.07730504125356674
      ],
      "min": [
        -0.07730598747730255,
        -0.11569031327962875,
        -3.509290036163293e-05
      ],
      "type": "VEC3"
    },
    {
      "bufferView": 2,
      "byteOffset": 440784,
      "componentType": 5126,
      "count": 502,
      "type": "VEC3"
    },
    {
      "bufferView": 1,
      "byteOffset": 144920,
      "componentType": 5126,
      "count": 502,
      "type": "VEC2"
    },
    {
      "bufferView": 4,
      "byteOffset": 144920,
      "componentType": 5123,
      "count": 502,
      "type": "VEC4"
    },
    {
      "bufferView": 3,
      "byteOffset": 289840,
      "componentType": 5126,
      "count": 502,
      "type": "VEC4"
    },
    {
      "bufferView": 0,
      "byteOffset": 309456,
      "componentType": 5125,
      "count": 1716,
      "type": "SCALAR"
    },
    {
      "bufferView": 2,
      "byteOffset": 446808,
      "componentType": 5126,
      "count": 225,
      "max": [
        0.08654095977544785,
        0.11530972272157669,
        1.4199198484420776
      ],
      "min": [
        -0.08675602823495865,
        -0.09587961435317993,
        1.1993573904037476
      ],
      "type": "VEC3"
    },
    {
      "bufferView": 2,
      "byteOffset": 449508,
      "componentType": 5126,
      "count": 225,
      "type": "VEC3"
    },
    {
      "bufferView": 1,
      "byteOffset": 148936,
      "componentType": 5126,
      "count": 225,
      "type": "VEC2"
    },
    {
      "bufferView": 4,
      "byteOffset": 148936,
      "componentType": 5123,
      "count": 225,
      "type": "VEC4"
    },
    {
      "bufferView": 3,
      "byteOffset": 297872,
      "componentType": 5126,
      "count": 225,
      "type": "VEC4"
    },
    {
      "bufferView": 0,
      "byteOffset": 316320,
      "componentType": 5125,
      "count": 1182,
      "type": "SCALAR"
    },
    {
      "bufferView": 5,
      "componentType": 5126,
      "count": 11,
      "type": "MAT4"
    },
    {
      "bufferView": 5,
      "byteOffset": 704,
      "componentType": 5126,
      "count": 8,
      "type": "MAT4"
    },
    {
      "bufferView": 5,
      "byteOffset": 1216,
      "componentType": 5126,
      "count": 1,
      "type": "MAT4"
    },
    {
      "bufferView": 5,
      "byteOffset": 1280,
      "componentType": 5126,
      "count": 4,
      "type": "MAT4"
    },
    {
      "bufferView": 5,
      "byteOffset": 1536,
      "componentType": 5126,
      "count": 12,
      "type": "MAT4"
    },
    {
      "bufferView": 5,
      "byteOffset": 2304,
      "componentType": 5126,
      "count": 5,
      "type": "MAT4"
    },
    {
      "bufferView": 5,
      "byteOffset": 2624,
      "componentType": 5126,
      "count": 1,
      "type": "MAT4"
    },
    {
      "bufferView": 5,
      "byteOffset": 2688,
      "componentType": 5126,
      "count": 1,
      "type": "MAT4"
    },
    {
      "bufferView": 5,
      "byteOffset": 2752,
      "componentType": 5126,
      "count": 1,
      "type": "MAT4"
    },
    {
      "bufferView": 5,
      "byteOffset": 2816,
      "componentType": 5126,
      "count": 1,
      "type": "MAT4"
    },
    {
      "bufferView": 5,
      "byteOffset": 2880,
      "componentType": 5126,
      "count": 1,
      "type": "MAT4"
    },
    {
      "bufferView": 5,
      "byteOffset": 2944,
      "componentType": 5126,
      "count": 2,
      "type": "MAT4"
    },
    {
      "bufferView": 5,
      "byteOffset": 3072,
      "componentType": 5126,
      "count": 2,
      "type": "MAT4"
    },
    {
      "bufferView": 5,
      "byteOffset": 3200,
      "componentType": 5126,
      "count": 1,
      "type": "MAT4"
    },
    {
      "bufferView": 5,
      "byteOffset": 3264,
      "componentType": 5126,
      "count": 1,
      "type": "MAT4"
    },
    {
      "bufferView": 5,
      "byteOffset": 3328,
      "componentType": 5126,
      "count": 55,
      "type": "MAT4"
    },
    {
      "bufferView": 5,
      "byteOffset": 6848,
      "componentType": 5126,
      "count": 37,
      "type": "MAT4"
    },
    {
      "bufferView": 5,
      "byteOffset": 9216,
      "componentType": 5126,
      "count": 6,
      "type": "MAT4"
    },
    {
      "bufferView": 5,
      "byteOffset": 9600,
      "componentType": 5126,
      "count": 1,
      "type": "MAT4"
    }
  ],
  "asset": {
    "generator": "fab-model-conversion",
    "version": "2.0"
  },
  "bufferViews": [
    {
      "buffer": 0,
      "byteLength": 321048,
      "target": 34963
    },
    {
      "buffer": 0,
      "byteLength": 150736,
      "byteOffset": 321048,
      "byteStride": 8,
      "target": 34962
    },
    {
      "buffer": 0,
      "byteLength": 452208,
      "byteOffset": 471784,
      "byteStride": 12,
      "target": 34962
    },
    {
      "buffer": 0,
      "byteLength": 301472,
      "byteOffset": 923992,
      "byteStride": 16,
      "target": 34962
    },
    {
      "buffer": 0,
      "byteLength": 150736,
      "byteOffset": 1225464,
      "byteStride": 8,
      "target": 34962
    },
    {
      "buffer": 0,
      "byteLength": 9664,
      "byteOffset": 1376200
    }
  ],
  "buffers": [
    {
      "byteLength": 1385864,
      "uri": "scene.bin"
    }
  ],
  "extensionsUsed": [
    "KHR_materials_clearcoat"
  ],
  "images": [
    {
      "uri": "textures/F00_000_Hair_00_HAIR_01_baseColor.png"
    },
    {
      "uri": "textures/F00_000_Hair_00_HAIR_02_baseColor.png"
    },
    {
      "uri": "textures/F00_000_Hair_00_HAIR_05_baseColor.png"
    },
    {
      "uri": "textures/F00_000_Hair_00_HAIR_06_baseColor.png"
    },
    {
      "uri": "textures/F00_000_00_FaceMouth_00_FACE_baseColor.png"
    },
    {
      "uri": "textures/F00_000_00_EyeWhite_00_EYE_baseColor.png"
    },
    {
      "uri": "textures/F00_000_00_FaceEyeline_00_FACE_baseColor.png"
    },
    {
      "uri": "textures/F00_000_00_FaceEyelash_00_FACE_baseColor.png"
    },
    {
      "uri": "textures/F00_000_00_FaceBrow_00_FACE_baseColor.png"
    },
    {
      "uri": "textures/F00_000_00_EyeIris_00_EYE_baseColor.png"
    },
    {
      "uri": "textures/F00_000_00_EyeHighlight_00_EYE_baseColor.png"
    },
    {
      "uri": "textures/F00_000_00_Face_00_SKIN_baseColor.png"
    },
    {
      "uri": "textures/F00_000_00_EyeExtra_01_EYE_baseColor.png"
    },
    {
      "uri": "textures/F00_002_02_Body_00_SKIN_baseColor.png"
    },
    {
      "uri": "textures/F00_002_01_Tops_01_CLOTH_baseColor.png"
    },
    {
      "uri": "textures/F00_000_HairBack_00_HAIR_baseColor.png"
    }
  ],
  "materials": [
    {
      "doubleSided": true,
      "extensions": {
        "KHR_materials_clearcoat": {
          "clearcoatFactor": 1.0,
          "clearcoatRoughnessFactor": 0.8
        }
      },
      "name": "F00_000_Hair_00_HAIR_01",
      "pbrMetallicRoughness": {
        "baseColorTexture": {
          "index": 0
        },
        "metallicFactor": 0.0,
        "roughnessFactor": 0.7470177871865296
      }
    },
    {
      "alphaMode": "BLEND",
      "doubleSided": true,
      "name": "F00_000_Hair_00_HAIR_02",
      "pbrMetallicRoughness": {
        "baseColorFactor": [
          0.8,
          0.8,
          0.8,
          1.0
        ],
        "baseColorTexture": {
          "index": 1
        },
        "metallicFactor": 0.0,
        "roughnessFactor": 0.7470177871865296
      }
    },
    {
      "alphaMode": "BLEND",
      "doubleSided": true,
      "name": "F00_000_Hair_00_HAIR_03",
      "pbrMetallicRoughness": {
        "baseColorFactor": [
          0.8,
          0.8,
          0.8,
          1.0
        ],
        "baseColorTexture": {
          "index": 1
        },
        "metallicFactor": 0.0,
        "roughnessFactor": 0.7470177871865296
      }
    },
    {
      "alphaMode": "BLEND",
      "doubleSided": true,
      "name": "F00_000_Hair_00_HAIR_04",
      "pbrMetallicRoughness": {
        "baseColorFactor": [
          0.8,
          0.8,
          0.8,
          1.0
        ],
        "baseColorTexture": {
          "index": 1
        },
        "metallicFactor": 0.0,
        "roughnessFactor": 0.7470177871865296
      }
    },
    {
      "doubleSided": true,
      "extensions": {
        "KHR_materials_clearcoat": {
          "clearcoatFactor": 1.0,
          "clearcoatRoughnessFactor": 0.8
        }
      },
      "name": "F00_000_Hair_00_HAIR_05",
      "pbrMetallicRoughness": {
        "baseColorTexture": {
          "index": 2
        },
        "metallicFactor": 0.0,
        "roughnessFactor": 0.7470177871865296
      }
    },
    {
      "alphaMode": "BLEND",
      "doubleSided": true,
      "name": "F00_000_Hair_00_HAIR_06",
      "pbrMetallicRoughness": {
        "baseColorTexture": {
          "index": 3
        },
        "metallicFactor": 0.0,
        "roughnessFactor": 0.7470177871865296
      }
    },
    {
      "doubleSided": true,
      "name": "F00_000_00_FaceMouth_00_FACE",
      "pbrMetallicRoughness": {
        "baseColorTexture": {
          "index": 4
        },
        "metallicFactor": 0.0,
        "roughnessFactor": 0.7470177871865296
      }
    },
    {
      "doubleSided": true,
      "name": "F00_000_00_EyeWhite_00_EYE",
      "pbrMetallicRoughness": {
        "baseColorTexture": {
          "index": 5
        },
        "metallicFactor": 0.0,
        "roughnessFactor": 0.7470177871865296
      }
    },
    {
      "alphaMode": "BLEND",
      "doubleSided": true,
      "extensions": {
        "KHR_materials_clearcoat": {
          "clearcoatFactor": 1.0,
          "clearcoatRoughnessFactor": 0.04
        }
      },
      "name": "F00_000_00_FaceEyeline_00_FACE",
      "pbrMetallicRoughness": {
        "baseColorTexture": {
          "index": 6
        },
        "metallicFactor": 0.0,
        "roughnessFactor": 0.7470177871865296
      }
    },
    {
      "alphaMode": "BLEND",
      "doubleSided": true,
      "extensions": {
        "KHR_materials_clearcoat": {
          "clearcoatFactor": 1.0,
          "clearcoatRoughnessFactor": 0.04
        }
      },
      "name": "F00_000_00_FaceEyelash_00_FACE",
      "pbrMetallicRoughness": {
        "baseColorTexture": {
          "index": 7
        },
        "metallicFactor": 0.0,
        "roughnessFactor": 0.7470177871865296
      }
    },
    {
      "alphaMode": "BLEND",
      "doubleSided": true,
      "extensions": {
        "KHR_materials_clearcoat": {
          "clearcoatFactor": 1.0,
          "clearcoatRoughnessFactor": 0.04
        }
      },
      "name": "F00_000_00_FaceBrow_00_FACE",
      "pbrMetallicRoughness": {
        "baseColorTexture": {
          "index": 8
        },
        "metallicFactor": 0.0,
        "roughnessFactor": 0.7470177871865296
      }
    },
    {
      "alphaMode": "BLEND",
      "doubleSided": true,
      "name": "F00_000_00_EyeIris_00_EYE",
      "pbrMetallicRoughness": {
        "baseColorTexture": {
          "index": 9
        },
        "metallicFactor": 0.0,
        "roughnessFactor": 0.7470177871865296
      }
    },
    {
      "alphaMode": "BLEND",
      "doubleSided": true,
      "name": "F00_000_00_EyeHighlight_00_EYE",
      "pbrMetallicRoughness": {
        "baseColorTexture": {
          "index": 10
        },
        "metallicFactor": 0.0,
        "roughnessFactor": 0.7470177871865296
      }
    },
    {
      "doubleSided": true,
      "name": "F00_000_00_Face_00_SKIN",
      "pbrMetallicRoughness": {
        "baseColorTexture": {
          "index": 11
        },
        "metallicFactor": 0.0,
        "roughnessFactor": 0.7470177871865296
      }
    },
    {
      "doubleSided": true,
      "name": "F00_000_00_EyeExtra_01_EYE",
      "pbrMetallicRoughness": {
        "baseColorTexture": {
          "index": 12
        },
        "metallicFactor": 0.0,
        "roughnessFactor": 0.7470177871865296
      }
    },
    {
      "doubleSided": true,
      "name": "F00_002_02_Body_00_SKIN",
      "pbrMetallicRoughness": {
        "baseColorTexture": {
          "index": 13
        },
        "metallicFactor": 0.0,
        "roughnessFactor": 0.7470177871865296
      }
    },
    {
      "alphaMode": "BLEND",
      "doubleSided": true,
      "name": "F00_002_01_Tops_01_CLOTH",
      "pbrMetallicRoughness": {
        "baseColorTexture": {
          "index": 14
        },
        "metallicFactor": 0.0,
        "roughnessFactor": 0.7470177871865296
      }
    },
    {
      "doubleSided": true,
      "extensions": {
        "KHR_materials_clearcoat": {
          "clearcoatFactor": 1,
          "clearcoatRoughnessFactor": 0.04
        }
      },
      "name": "F00_004_01_Shoes_01_CLOTH",
      "pbrMetallicRoughness": {
        "baseColorFactor": [
          0.8,
          0.8,
          0.8,
          1.0
        ],
        "metallicFactor": 0.0,
        "roughnessFactor": 0.7470177871865296
      }
    },
    {
      "alphaMode": "BLEND",
      "doubleSided": true,
      "extensions": {
        "KHR_materials_clearcoat": {
          "clearcoatFactor": 1.0,
          "clearcoatRoughnessFactor": 0.8
        }
      },
      "name": "F00_000_HairBack_00_HAIR",
      "pbrMetallicRoughness": {
        "baseColorTexture": {
          "index": 15
        },
        "metallicFactor": 0.0,
        "roughnessFactor": 0.7470177871865296
      }
    }
  ],
  "meshes": [
    {
      "name": "0",
      "primitives": [
        {
          "attributes": {
            "JOINTS_0": 3,
            "NORMAL": 1,
            "POSITION": 0,
            "TEXCOORD_0": 2,
            "WEIGHTS_0": 4
          },
          "indices": 5,
          "material": 0,
          "mode": 4
        }
      ]
    },
    {
      "name": "1",
      "primitives": [
        {
          "attributes": {
            "JOINTS_0": 9,
            "NORMAL": 7,
            "POSITION": 6,
            "TEXCOORD_0": 8,
            "WEIGHTS_0": 10
          },
          "indices": 11,
          "material": 1,
          "mode": 4
        }
      ]
    },
    {
      "name": "2",
      "primitives": [
        {
          "attributes": {
            "JOINTS_0": 15,
            "NORMAL": 13,
            "POSITION": 12,
            "TEXCOORD_0": 14,
            "WEIGHTS_0": 16
          },
          "indices": 17,
          "material": 2,
          "mode": 4
        }
      ]
    },
    {
      "name": "3",
      "primitives": [
        {
          "attributes": {
            "JOINTS_0": 21,
            "NORMAL": 19,
            "POSITION": 18,
            "TEXCOORD_0": 20,
            "WEIGHTS_0": 22
          },
          "indices": 23,
          "material": 3,
          "mode": 4
        }
      ]
    },
    {
      "name": "4",
      "primitives": [
        {
          "attributes": {
            "JOINTS_0": 27,
            "NORMAL": 25,
            "POSITION": 24,
            "TEXCOORD_0": 26,
            "WEIGHTS_0": 28
          },
          "indices": 29,
          "material": 4,
          "mode": 4
        }
      ]
    },
    {
      "name": "5",
      "primitives": [
        {
          "attributes": {
            "JOINTS_0": 33,
            "NORMAL": 31,
            "POSITION": 30,
            "TEXCOORD_0": 32,
            "WEIGHTS_0": 34
          },
          "indices": 35,
          "material": 5,
          "mode": 4
        }
      ]
    },
    {
      "name": "6",
      "primitives": [
        {
          "attributes": {
            "JOINTS_0": 39,
            "NORMAL": 37,
            "POSITION": 36,
            "TEXCOORD_0": 38,
            "WEIGHTS_0": 40
          },
          "indices": 41,
          "material": 6,
          "mode": 4
        }
      ]
    },
    {
      "name": "7",
      "primitives": [
        {
          "attributes": {
            "JOINTS_0": 45,
            "NORMAL": 43,
            "POSITION": 42,
            "TEXCOORD_0": 44,
            "WEIGHTS_0": 46
          },
          "indices": 47,
          "material": 7,
          "mode": 4
        }
      ]
    },
    {
      "name": "8",
      "primitives": [
        {
          "attributes": {
            "JOINTS_0": 51,
            "NORMAL": 49,
            "POSITION": 48,
            "TEXCOORD_0": 50,
            "WEIGHTS_0": 52
          },
          "indices": 53,
          "material": 8,
          "mode": 4
        }
      ]
    },
    {
      "name": "9",
      "primitives": [
        {
          "attributes": {
            "JOINTS_0": 57,
            "NORMAL": 55,
            "POSITION": 54,
            "TEXCOORD_0": 56,
            "WEIGHTS_0": 58
          },
          "indices": 59,
          "material": 9,
          "mode": 4
        }
      ]
    },
    {
      "name": "10",
      "primitives": [
        {
          "attributes": {
            "JOINTS_0": 63,
            "NORMAL": 61,
            "POSITION": 60,
            "TEXCOORD_0": 62,
            "WEIGHTS_0": 64
          },
          "indices": 65,
          "material": 10,
          "mode": 4
        }
      ]
    },
    {
      "name": "11",
      "primitives": [
        {
          "attributes": {
            "JOINTS_0": 69,
            "NORMAL": 67,
            "POSITION": 66,
            "TEXCOORD_0": 68,
            "WEIGHTS_0": 70
          },
          "indices": 71,
          "material": 11,
          "mode": 4
        }
      ]
    },
    {
      "name": "12",
      "primitives": [
        {
          "attributes": {
            "JOINTS_0": 75,
            "NORMAL": 73,
            "POSITION": 72,
            "TEXCOORD_0": 74,
            "WEIGHTS_0": 76
          },
          "indices": 77,
          "material": 12,
          "mode": 4
        }
      ]
    },
    {
      "name": "13",
      "primitives": [
        {
          "attributes": {
            "JOINTS_0": 81,
            "NORMAL": 79,
            "POSITION": 78,
            "TEXCOORD_0": 80,
            "WEIGHTS_0": 82
          },
          "indices": 83,
          "material": 13,
          "mode": 4
        }
      ]
    },
    {
      "name": "14",
      "primitives": [
        {
          "attributes": {
            "JOINTS_0": 87,
            "NORMAL": 85,
            "POSITION": 84,
            "TEXCOORD_0": 86,
            "WEIGHTS_0": 88
          },
          "indices": 89,
          "material": 14,
          "mode": 4
        }
      ]
    },
    {
      "name": "15",
      "primitives": [
        {
          "attributes": {
            "JOINTS_0": 93,
            "NORMAL": 91,
            "POSITION": 90,
            "TEXCOORD_0": 92,
            "WEIGHTS_0": 94
          },
          "indices": 95,
          "material": 15,
          "mode": 4
        }
      ]
    },
    {
      "name": "16",
      "primitives": [
        {
          "attributes": {
            "JOINTS_0": 99,
            "NORMAL": 97,
            "POSITION": 96,
            "TEXCOORD_0": 98,
            "WEIGHTS_0": 100
          },
          "indices": 101,
          "material": 16,
          "mode": 4
        }
      ]
    },
    {
      "name": "17",
      "primitives": [
        {
          "attributes": {
            "JOINTS_0": 105,
            "NORMAL": 103,
            "POSITION": 102,
            "TEXCOORD_0": 104,
            "WEIGHTS_0": 106
          },
          "indices": 107,
          "material": 17,
          "mode": 4
        }
      ]
    },
    {
      "name": "18",
      "primitives": [
        {
          "attributes": {
            "JOINTS_0": 111,
            "NORMAL": 109,
            "POSITION": 108,
            "TEXCOORD_0": 110,
            "WEIGHTS_0": 112
          },
          "indices": 113,
          "material": 18,
          "mode": 4
        }
      ]
    }
  ],
  "nodes": [
    {
      "children": [
        1,
        99,
        100,
        101,
        102,
        103,
        104,
        105,
        106,
        107,
        108,
        109,
        110,
        111,
        112,
        113,
        114,
        115,
        116,
        117
      ],
      "matrix": [
        1.0,
        0.0,
        0.0,
        0.0,
        0.0,
        2.220446049250313e-16,
        -1.0,
        0.0,
        0.0,
        1.0,
        2.220446049250313e-16,
        0.0,
        0.0,
        0.0,
        0.0,
        1.0
      ],
      "name": "Sketchfab_model"
    },
    {
      "children": [
        2
      ],
      "matrix": [
        1.0,
        0.0,
        0.0,
        0.0,
        0.0,
        0.0,
        1.0,
        0.0,
        0.0,
        -1.0,
        0.0,
        0.0,
        0.0,
        0.0,
        0.0,
        1.0
      ],
      "name": "Latifa.fbx"
    },
    {
      "children": [
        3
      ],
      "name": "RootNode"
    },
    {
      "children": [
        4
      ],
      "matrix": [
        1.0,
        0.0,
        0.0,
        0.0,
        0.0,
        -1.6292067939183141e-07,
        -0.9999999999999868,
        0.0,
        0.0,
        0.9999999999999868,
        -1.6292067939183141e-07,
        0.0,
        0.0,
        0.0,
        0.0,
        1.0
      ],
      "name": "Armature"
    },
    {
      "children": [
        5,
        98
      ],
      "name": "Object_4"
    },
    {
      "children": [
        6,
        8,
        10,
        82,
        90
      ],
      "name": "Hips_01"
    },
    {
      "children": [
        7
      ],
      "name": "J_Sec_L_SkirtSide1_02"
    },
    {
      "name": "J_Sec_L_SkirtSide2_03"
    },
    {
      "children": [
        9
      ],
      "name": "J_Sec_R_SkirtSide1_04"
    },
    {
      "name": "J_Sec_R_SkirtSide2_05"
    },
    {
      "children": [
        11
      ],
      "name": "Spine_06"
    },
    {
      "children": [
        12,
        14,
        16,
        40,
        61
      ],
      "name": "Chest_07"
    },
    {
      "children": [
        13
      ],
      "name": "Breast_L_08"
    },
    {
      "name": "J_Sec_L_Bust2_09"
    },
    {
      "children": [
        15
      ],
      "name": "Breast_R_010"
    },
    {
      "name": "J_Sec_R_Bust2_011"
    },
    {
      "children": [
        17
      ],
      "name": "Neck_012"
    },
    {
      "children": [
        18,
        19,
        20,
        21,
        23,
        25,
        28,
        33,
        36,
        38
      ],
      "name": "Head_013"
    },
    {
      "name": "Eye_L_014"
    },
    {
      "name": "Eye_R_015"
    },
    {
      "name": "HairJoint_69ab4d0b_9325_4faa_9597_bd0c6abc8780_016"
    },
    {
      "children": [
        22
      ],
      "name": "HairJoint_c573865e_9332_44b5_8d9e_3c20f456bdeb_017"
    },
    {
      "name": "HairJoint_370dbb15_238e_4695_be6f_31938778ff25_018"
    },
    {
      "children": [
        24
      ],
      "name": "HairJoint_161c1b7f_c33b_432a_820b_dff14d25bc7a_019"
    },
    {
      "name": "HairJoint_be0e42b6_9f87_47f5_a9cc_2c7b4ee96992_020"
    },
    {
      "children": [
        26
      ],
      "name": "HairJoint_b91b9ff0_e0f4_4f2e_b97c_564a60e1005b_021"
    },
    {
      "children": [
        27
      ],
      "name": "HairJoint_926860e6_9d56_4e9f_9fbf_d1c99a639430_022"
    },
    {
      "name": "HairJoint_0fd9053c_ea8c_418e_ad52_8d96cab7ee79_023"
    },
    {
      "children": [
        29
      ],
      "name": "HairJoint_df29e53e_a486_4568_b875_b6366bafec64_024"
    },
    {
      "children": [
        30
      ],
      "name": "HairJoint_ba10f793_a333_483f_889f_5225a5e88ead_025"
    },
    {
      "children": [
        31
      ],
      "name": "HairJoint_5de69cd9_1edf_4e09_b0b3_dc73d05f22ee_026"
    },
    {
      "children": [
        32
      ],
      "name": "HairJoint_3d4e7a07_9da2_4935_baaa_6d9d85dd6b23_027"
    },
    {
      "name": "HairJoint_67700781_9dd1_48ef_8084_7d8276c815d0_028"
    },
    {
      "children": [
        34
      ],
      "name": "HairJoint_0ac4a3ee_0fd3_4627_9aed_3928d863f9f6_029"
    },
    {
      "children": [
        35
      ],
      "name": "HairJoint_a19c1fa2_7f4d_42ab_8ac6_917b0d430738_030"
    },
    {
      "name": "HairJoint_4826bde9_7073_44db_adfd_3e30f1c6f4a3_00"
    },
    {
      "children": [
        37
      ],
      "name": "HairJoint_a8676c3f_a6f7_492f_90a6_3a5babeed491_031"
    },
    {
      "name": "HairJoint_a34583f2_17bb_4eea_9d70_e930e1ed183d_032"
    },
    {
      "children": [
        39
      ],
      "name": "HairJoint_6860b79f_73ad_4520_99f0_4b3fcbd9ced8_033"
    },
    {
      "name": "HairJoint_80fa29ba_65cc_497a_abf4_8c8bc2de12f5_034"
    },
    {
      "children": [
        41
      ],
      "name": "Left shoulder_035"
    },
    {
      "children": [
        42
      ],
      "name": "Left arm_036"
    },
    {
      "children": [
        43,
        44
      ],
      "name": "Left elbow_037"
    },
    {
      "name": "J_Sec_L_LowerSleeve_038"
    },
    {
      "children": [
        45,
        48,
        51,
        54,
        57,
        60
      ],
      "name": "Left wrist_039"
    },
    {
      "children": [
        46
      ],
      "name": "IndexFinger1_L_040"
    },
    {
      "children": [
        47
      ],
      "name": "IndexFinger2_L_041"
    },
    {
      "name": "IndexFinger3_L_042"
    },
    {
      "children": [
        49
      ],
      "name": "LittleFinger1_L_043"
    },
    {
      "children": [
        50
      ],
      "name": "LittleFinger2_L_044"
    },
    {
      "name": "LittleFinger3_L_045"
    },
    {
      "children": [
        52
      ],
      "name": "MiddleFinger1_L_046"
    },
    {
      "children": [
        53
      ],
      "name": "MiddleFinger2_L_047"
    },
    {
      "name": "MiddleFinger3_L_048"
    },
    {
      "children": [
        55
      ],
      "name": "RingFinger1_L_049"
    },
    {
      "children": [
        56
      ],
      "name": "RingFinger2_L_050"
    },
    {
      "name": "RingFinger3_L_051"
    },
    {
      "children": [
        58
      ],
      "name": "Thumb0_L_052"
    },
    {
      "children": [
        59
      ],
      "name": "Thumb1_L_053"
    },
    {
      "name": "Thumb2_L_054"
    },
    {
      "name": "J_Sec_L_TipSleeve_055"
    },
    {
      "children": [
        62
      ],
      "name": "Right shoulder_056"
    },
    {
      "children": [
        63
      ],
      "name": "Right arm_057"
    },
    {
      "children": [
        64,
        65
      ],
      "name": "Right elbow_058"
    },
    {
      "name": "J_Sec_R_LowerSleeve_059"
    },
    {
      "children": [
        66,
        69,
        72,
        75,
        78,
        81
      ],
      "name": "Right wrist_060"
    },
    {
      "children": [
        67
      ],
      "name": "IndexFinger1_R_061"
    },
    {
      "children": [
        68
      ],
      "name": "IndexFinger2_R_062"
    },
    {
      "name": "IndexFinger3_R_063"
    },
    {
      "children": [
        70
      ],
      "name": "LittleFinger1_R_064"
    },
    {
      "children": [
        71
      ],
      "name": "LittleFinger2_R_065"
    },
    {
      "name": "LittleFinger3_R_066"
    },
    {
      "children": [
        73
      ],
      "name": "MiddleFinger1_R_067"
    },
    {
      "children": [
        74
      ],
      "name": "MiddleFinger2_R_068"
    },
    {
      "name": "MiddleFinger3_R_069"
    },
    {
      "children": [
        76
      ],
      "name": "RingFinger1_R_070"
    },
    {
      "children": [
        77
      ],
      "name": "RingFinger2_R_071"
    },
    {
      "name": "RingFinger3_R_072"
    },
    {
      "children": [
        79
      ],
      "name": "Thumb0_R_073"
    },
    {
      "children": [
        80
      ],
      "name": "Thumb1_R_074"
    },
    {
      "name": "Thumb2_R_075"
    },
    {
      "name": "J_Sec_R_TipSleeve_076"
    },
    {
      "children": [
        83,
        85,
        87
      ],
      "name": "Left leg_077"
    },
    {
      "children": [
        84
      ],
      "name": "J_Sec_L_SkirtBack1_078"
    },
    {
      "name": "J_Sec_L_SkirtBack2_079"
    },
    {
      "children": [
        86
      ],
      "name": "J_Sec_L_SkirtFront1_080"
    },
    {
      "name": "J_Sec_L_SkirtFront2_081"
    },
    {
      "children": [
        88
      ],
      "name": "Left knee_082"
    },
    {
      "children": [
        89
      ],
      "name": "Left ankle_083"
    },
    {
      "name": "Left toe_084"
    },
    {
      "children": [
        91,
        93,
        95
      ],
      "name": "Right leg_085"
    },
    {
      "children": [
        92
      ],
      "name": "J_Sec_R_SkirtBack1_086"
    },
    {
      "name": "J_Sec_R_SkirtBack2_087"
    },
    {
      "children": [
        94
      ],
      "name": "J_Sec_R_SkirtFront1_088"
    },
    {
      "name": "J_Sec_R_SkirtFront2_089"
    },
    {
      "children": [
        96
      ],
      "name": "Right knee_090"
    },
    {
      "children": [
        97
      ],
      "name": "Right ankle_091"
    },
    {
      "name": "Right toe_092"
    },
    {
      "matrix": [
        1.0,
        0.0,
        0.0,
        0.0,
        0.0,
        6.123233995736766e-17,
        -1.0,
        0.0,
        0.0,
        1.0,
        6.123233995736766e-17,
        0.0,
        0.0,
        0.0,
        0.0,
        1.0
      ],
      "name": "Object_98"
    },
    {
      "mesh": 0,
      "name": "Object_99",
      "skin": 0
    },
    {
      "mesh": 1,
      "name": "Object_100",
      "skin": 1
    },
    {
      "mesh": 2,
      "name": "Object_101",
      "skin": 2
    },
    {
      "mesh": 3,
      "name": "Object_102",
      "skin": 3
    },
    {
      "mesh": 4,
      "name": "Object_103",
      "skin": 4
    },
    {
      "mesh": 5,
      "name": "Object_104",
      "skin": 5
    },
    {
      "mesh": 6,
      "name": "Object_105",
      "skin": 6
    },
    {
      "mesh": 7,
      "name": "Object_106",
      "skin": 7
    },
    {
      "mesh": 8,
      "name": "Object_107",
      "skin": 8
    },
    {
      "mesh": 9,
      "name": "Object_108",
      "skin": 9
    },
    {
      "mesh": 10,
      "name": "Object_109",
      "skin": 10
    },
    {
      "mesh": 11,
      "name": "Object_110",
      "skin": 11
    },
    {
      "mesh": 12,
      "name": "Object_111",
      "skin": 12
    },
    {
      "mesh": 13,
      "name": "Object_112",
      "skin": 13
    },
    {
      "mesh": 14,
      "name": "Object_113",
      "skin": 14
    },
    {
      "mesh": 15,
      "name": "Object_114",
      "skin": 15
    },
    {
      "mesh": 16,
      "name": "Object_115",
      "skin": 16
    },
    {
      "mesh": 17,
      "name": "Object_116",
      "skin": 17
    },
    {
      "mesh": 18,
      "name": "Object_117",
      "skin": 18
    }
  ],
  "samplers": [
    {
      "magFilter": 9729,
      "minFilter": 9987,
      "wrapS": 10497,
      "wrapT": 10497
    }
  ],
  "scene": 0,
  "scenes": [
    {
      "name": "Sketchfab_Scene",
      "nodes": [
        0
      ]
    }
  ],
  "skins": [
    {
      "inverseBindMatrices": 114,
      "joints": [
        17,
        21,
        22,
        23,
        24,
        20,
        28,
        29,
        30,
        31,
        32
      ]
    },
    {
      "inverseBindMatrices": 115,
      "joints": [
        17,
        21,
        22,
        20,
        23,
        24,
        38,
        39
      ]
    },
    {
      "inverseBindMatrices": 116,
      "joints": [
        17
      ]
    },
    {
      "inverseBindMatrices": 117,
      "joints": [
        17,
        20,
        23,
        24
      ]
    },
    {
      "inverseBindMatrices": 118,
      "joints": [
        17,
        25,
        26,
        27,
        28,
        29,
        30,
        31,
        32,
        33,
        34,
        35
      ]
    },
    {
      "inverseBindMatrices": 119,
      "joints": [
        17,
        36,
        37,
        38,
        39
      ]
    },
    {
      "inverseBindMatrices": 120,
      "joints": [
        17
      ]
    },
    {
      "inverseBindMatrices": 121,
      "joints": [
        17
      ]
    },
    {
      "inverseBindMatrices": 122,
      "joints": [
        17
      ]
    },
    {
      "inverseBindMatrices": 123,
      "joints": [
        17
      ]
    },
    {
      "inverseBindMatrices": 124,
      "joints": [
        17
      ]
    },
    {
      "inverseBindMatrices": 125,
      "joints": [
        18,
        19
      ]
    },
    {
      "inverseBindMatrices": 126,
      "joints": [
        18,
        19
      ]
    },
    {
      "inverseBindMatrices": 127,
      "joints": [
        17
      ]
    },
    {
      "inverseBindMatrices": 128,
      "joints": [
        17
      ]
    },
    {
      "inverseBindMatrices": 129,
      "joints": [
        40,
        16,
        11,
        41,
        17,
        61,
        10,
        5,
        82,
        12,
        13,
        90,
        14,
        62,
        15,
        87,
        88,
        95,
        96,
        42,
        44,
        63,
        65,
        89,
        97,
        57,
        48,
        49,
        50,
        54,
        58,
        45,
        59,
        51,
        78,
        69,
        70,
        71,
        75,
        79,
        66,
        80,
        72,
        46,
        47,
        52,
        53,
        55,
        56,
        67,
        68,
        73,
        74,
        76,
        77
      ]
    },
    {
      "inverseBindMatrices": 130,
      "joints": [
        16,
        17,
        40,
        11,
        61,
        41,
        12,
        10,
        5,
        14,
        62,
        15,
        13,
        90,
        85,
        93,
        82,
        60,
        42,
        44,
        43,
        54,
        81,
        63,
        65,
        64,
        75,
        86,
        7,
        6,
        94,
        84,
        83,
        92,
        9,
        8,
        91
      ]
    },
    {
      "inverseBindMatrices": 131,
      "joints": [
        88,
        87,
        89,
        96,
        95,
        97
      ]
    },
    {
      "inverseBindMatrices": 132,
      "joints": [
        17
      ]
    }
  ],
  "textures": [
    {
      "sampler": 0,
      "source": 0
    },
    {
      "sampler": 0,
      "source": 1
    },
    {
      "sampler": 0,
      "source": 2
    },
    {
      "sampler": 0,
      "source": 3
    },
    {
      "sampler": 0,
      "source": 4
    },
    {
      "sampler": 0,
      "source": 5
    },
    {
      "sampler": 0,
      "source": 6
    },
    {
      "sampler": 0,
      "source": 7
    },
    {
      "sampler": 0,
      "source": 8
    },
    {
      "sampler": 0,
      "source": 9
    },
    {
      "sampler": 0,
      "source": 10
    },
    {
      "sampler": 0,
      "source": 11
    },
    {
      "sampler": 0,
      "source": 12
    },
    {
      "sampler": 0,
      "source": 13
    },
    {
      "sampler": 0,
      "source": 14
    },
    {
      "sampler": 0,
      "source": 15
    }
  ]
}
